<?xml version="1.0" encoding="utf-8"?>
<!-- Generator: Adobe Illustrator 26.3.1, SVG Export Plug-In . SVG Version: 6.00 Build 0)  -->
<svg version="1.1" id="Layer_1" xmlns="http://www.w3.org/2000/svg" xmlns:xlink="http://www.w3.org/1999/xlink" x="0px" y="0px"
	 viewBox="0 0 600 600" style="enable-background:new 0 0 600 600;" xml:space="preserve">
<style type="text/css">
	.st0{fill:#FFFFFF;}
</style>
<g>
	<g>
		<rect x="69.05" y="30.5" width="62.19" height="62.19"/>
		<rect x="131.24" y="30.5" class="st0" width="62.19" height="62.19"/>
		<rect x="193.43" y="30.5" width="62.19" height="62.19"/>
		<rect x="255.62" y="30.5" class="st0" width="62.19" height="62.19"/>
		<rect x="317.82" y="30.5" width="62.19" height="62.19"/>
		<rect x="380.01" y="30.5" class="st0" width="62.19" height="62.19"/>
		<rect x="442.2" y="30.5" width="62.19" height="62.19"/>
		<rect x="504.39" y="30.5" class="st0" width="62.19" height="62.19"/>
		
			<rect x="504.39" y="92.69" transform="matrix(-1 -1.224647e-16 1.224647e-16 -1 1070.9769 247.5765)" width="62.19" height="62.19"/>
		
			<rect x="442.2" y="92.69" transform="matrix(-1 -1.224647e-16 1.224647e-16 -1 946.5927 247.5765)" class="st0" width="62.19" height="62.19"/>
		
			<rect x="380.01" y="92.69" transform="matrix(-1 -1.224647e-16 1.224647e-16 -1 822.2083 247.5765)" width="62.19" height="62.19"/>
		
			<rect x="317.82" y="92.69" transform="matrix(-1 -1.224647e-16 1.224647e-16 -1 697.8239 247.5765)" class="st0" width="62.19" height="62.19"/>
		
			<rect x="255.62" y="92.69" transform="matrix(-1 -1.224647e-16 1.224647e-16 -1 573.4396 247.5765)" width="62.19" height="62.19"/>
		
			<rect x="193.43" y="92.69" transform="matrix(-1 -1.224647e-16 1.224647e-16 -1 449.0552 247.5765)" class="st0" width="62.19" height="62.19"/>
		
			<rect x="131.24" y="92.69" transform="matrix(-1 -1.224647e-16 1.224647e-16 -1 324.6709 247.5765)" width="62.19" height="62.19"/>
		
			<rect x="69.05" y="92.69" transform="matrix(-1 -1.224647e-16 1.224647e-16 -1 200.2865 247.5765)" class="st0" width="62.19" height="62.19"/>
		<rect x="69.05" y="154.88" width="62.19" height="62.19"/>
		<rect x="131.24" y="154.88" class="st0" width="62.19" height="62.19"/>
		<rect x="193.43" y="154.88" width="62.19" height="62.19"/>
		<rect x="255.62" y="154.88" class="st0" width="62.19" height="62.19"/>
		<rect x="317.82" y="154.88" width="62.19" height="62.19"/>
		<rect x="380.01" y="154.88" class="st0" width="62.19" height="62.19"/>
		<rect x="442.2" y="154.88" width="62.19" height="62.19"/>
		<rect x="504.39" y="154.88" class="st0" width="62.19" height="62.19"/>
		
			<rect x="504.39" y="217.08" transform="matrix(-1 -1.224647e-16 1.224647e-16 -1 1070.9769 496.3452)" width="62.19" height="62.19"/>
		
			<rect x="442.2" y="217.08" transform="matrix(-1 -1.224647e-16 1.224647e-16 -1 946.5927 496.3452)" class="st0" width="62.19" height="62.19"/>
		
			<rect x="380.01" y="217.08" transform="matrix(-1 -1.224647e-16 1.224647e-16 -1 822.2083 496.3452)" width="62.19" height="62.19"/>
		
			<rect x="317.82" y="217.08" transform="matrix(-1 -1.224647e-16 1.224647e-16 -1 697.8239 496.3452)" class="st0" width="62.19" height="62.19"/>
		
			<rect x="255.62" y="217.08" transform="matrix(-1 -1.224647e-16 1.224647e-16 -1 573.4396 496.3452)" width="62.19" height="62.19"/>
		
			<rect x="193.43" y="217.08" transform="matrix(-1 -1.224647e-16 1.224647e-16 -1 449.0552 496.3452)" class="st0" width="62.19" height="62.19"/>
		
			<rect x="131.24" y="217.08" transform="matrix(-1 -1.224647e-16 1.224647e-16 -1 324.6709 496.3452)" width="62.19" height="62.19"/>
		
			<rect x="69.05" y="217.08" transform="matrix(-1 -1.224647e-16 1.224647e-16 -1 200.2865 496.3452)" class="st0" width="62.19" height="62.19"/>
		<rect x="69.05" y="279.27" width="62.19" height="62.19"/>
		<rect x="131.24" y="279.27" class="st0" width="62.19" height="62.19"/>
		<rect x="193.43" y="279.27" width="62.19" height="62.19"/>
		<rect x="255.62" y="279.27" class="st0" width="62.19" height="62.19"/>
		<rect x="317.82" y="279.27" width="62.19" height="62.19"/>
		<rect x="380.01" y="279.27" class="st0" width="62.19" height="62.19"/>
		<rect x="442.2" y="279.27" width="62.19" height="62.19"/>
		<rect x="504.39" y="279.27" class="st0" width="62.19" height="62.19"/>
		
			<rect x="504.39" y="341.46" transform="matrix(-1 -1.224647e-16 1.224647e-16 -1 1070.9769 745.114)" width="62.19" height="62.19"/>
		
			<rect x="442.2" y="341.46" transform="matrix(-1 -1.224647e-16 1.224647e-16 -1 946.5927 745.114)" class="st0" width="62.19" height="62.19"/>
		
			<rect x="380.01" y="341.46" transform="matrix(-1 -1.224647e-16 1.224647e-16 -1 822.2083 745.114)" width="62.19" height="62.19"/>
		
			<rect x="317.82" y="341.46" transform="matrix(-1 -1.224647e-16 1.224647e-16 -1 697.8239 745.114)" class="st0" width="62.19" height="62.19"/>
		
			<rect x="255.62" y="341.46" transform="matrix(-1 -1.224647e-16 1.224647e-16 -1 573.4396 745.114)" width="62.19" height="62.19"/>
		
			<rect x="193.43" y="341.46" transform="matrix(-1 -1.224647e-16 1.224647e-16 -1 449.0552 745.114)" class="st0" width="62.19" height="62.19"/>
		
			<rect x="131.24" y="341.46" transform="matrix(-1 -1.224647e-16 1.224647e-16 -1 324.6709 745.114)" width="62.19" height="62.19"/>
		
			<rect x="69.05" y="341.46" transform="matrix(-1 -1.224647e-16 1.224647e-16 -1 200.2865 745.114)" class="st0" width="62.19" height="62.19"/>
		<rect x="69.05" y="403.65" width="62.19" height="62.19"/>
		<rect x="131.24" y="403.65" class="st0" width="62.19" height="62.19"/>
		<rect x="193.43" y="403.65" width="62.19" height="62.19"/>
		<rect x="255.62" y="403.65" class="st0" width="62.19" height="62.19"/>
		<rect x="317.82" y="403.65" width="62.19" height="62.19"/>
		<rect x="380.01" y="403.65" class="st0" width="62.19" height="62.19"/>
		<rect x="442.2" y="403.65" width="62.19" height="62.19"/>
		<rect x="504.39" y="403.65" class="st0" width="62.19" height="62.19"/>
		
			<rect x="504.39" y="465.85" transform="matrix(-1 -1.224647e-16 1.224647e-16 -1 1070.9769 993.8826)" width="62.19" height="62.19"/>
		
			<rect x="442.2" y="465.85" transform="matrix(-1 -1.224647e-16 1.224647e-16 -1 946.5927 993.8826)" class="st0" width="62.19" height="62.19"/>
		
			<rect x="380.01" y="465.85" transform="matrix(-1 -1.224647e-16 1.224647e-16 -1 822.2083 993.8826)" width="62.19" height="62.19"/>
		
			<rect x="317.82" y="465.85" transform="matrix(-1 -1.224647e-16 1.224647e-16 -1 697.8239 993.8826)" class="st0" width="62.19" height="62.19"/>
		
			<rect x="255.62" y="465.85" transform="matrix(-1 -1.224647e-16 1.224647e-16 -1 573.4396 993.8826)" width="62.19" height="62.19"/>
		
			<rect x="193.43" y="465.85" transform="matrix(-1 -1.224647e-16 1.224647e-16 -1 449.0552 993.8826)" class="st0" width="62.19" height="62.19"/>
		
			<rect x="131.24" y="465.85" transform="matrix(-1 -1.224647e-16 1.224647e-16 -1 324.6709 993.8826)" width="62.19" height="62.19"/>
		
			<rect x="69.05" y="465.85" transform="matrix(-1 -1.224647e-16 1.224647e-16 -1 200.2865 993.8826)" class="st0" width="62.19" height="62.19"/>
		<g>
			<path d="M566.58,30.5v497.54H69.05V30.5H566.58 M570.58,26.5h-4H69.05h-4v4v497.54v4h4h497.54h4v-4V30.5V26.5L570.58,26.5z"/>
		</g>
	</g>
	<g>
		<path d="M34.23,492.86c0.43-1.48,1.02-2.66,1.77-3.55c0.74-0.89,1.61-1.53,2.6-1.91c0.99-0.38,2.03-0.57,3.14-0.57
			c1.13,0,2.18,0.19,3.17,0.57c0.99,0.38,1.86,1.02,2.61,1.91c0.75,0.89,1.35,2.08,1.78,3.55c0.44,1.48,0.65,3.3,0.65,5.47
			c0,2.23-0.22,4.1-0.65,5.59s-1.03,2.69-1.78,3.59c-0.75,0.89-1.63,1.53-2.61,1.91c-0.99,0.38-2.05,0.57-3.17,0.57
			c-1.11,0-2.15-0.19-3.14-0.57c-0.99-0.38-1.85-1.02-2.6-1.91c-0.74-0.89-1.33-2.09-1.77-3.59c-0.44-1.5-0.65-3.36-0.65-5.59
			C33.57,496.16,33.79,494.34,34.23,492.86z M38.16,500.64c0.04,0.9,0.18,1.77,0.4,2.61c0.22,0.84,0.58,1.56,1.07,2.15
			c0.49,0.6,1.19,0.89,2.1,0.89c0.93,0,1.65-0.3,2.15-0.89c0.5-0.6,0.86-1.31,1.08-2.15c0.22-0.84,0.36-1.71,0.4-2.61
			c0.04-0.9,0.06-1.67,0.06-2.31c0-0.38-0.01-0.84-0.02-1.39s-0.05-1.1-0.13-1.67c-0.07-0.57-0.18-1.14-0.32-1.7
			c-0.14-0.56-0.35-1.07-0.62-1.51c-0.28-0.45-0.63-0.81-1.05-1.08c-0.43-0.28-0.95-0.41-1.56-0.41c-0.62,0-1.13,0.14-1.55,0.41
			c-0.41,0.28-0.75,0.64-1.02,1.08c-0.27,0.45-0.47,0.95-0.62,1.51c-0.15,0.56-0.26,1.13-0.32,1.7c-0.06,0.57-0.1,1.13-0.11,1.67
			c-0.01,0.54-0.02,1-0.02,1.39C38.1,498.96,38.12,499.74,38.16,500.64z"/>
	</g>
	<g>
		<path d="M34.23,492.86c0.43-1.48,1.02-2.66,1.77-3.55c0.74-0.89,1.61-1.53,2.6-1.91c0.99-0.38,2.03-0.57,3.14-0.57
			c1.13,0,2.18,0.19,3.17,0.57c0.99,0.38,1.86,1.02,2.61,1.91c0.75,0.89,1.35,2.08,1.78,3.55c0.44,1.48,0.65,3.3,0.65,5.47
			c0,2.23-0.22,4.1-0.65,5.59s-1.03,2.69-1.78,3.59c-0.75,0.89-1.63,1.53-2.61,1.91c-0.99,0.38-2.05,0.57-3.17,0.57
			c-1.11,0-2.15-0.19-3.14-0.57c-0.99-0.38-1.85-1.02-2.6-1.91c-0.74-0.89-1.33-2.09-1.77-3.59c-0.44-1.5-0.65-3.36-0.65-5.59
			C33.57,496.16,33.79,494.34,34.23,492.86z M38.16,500.64c0.04,0.9,0.18,1.77,0.4,2.61c0.22,0.84,0.58,1.56,1.07,2.15
			c0.49,0.6,1.19,0.89,2.1,0.89c0.93,0,1.65-0.3,2.15-0.89c0.5-0.6,0.86-1.31,1.08-2.15c0.22-0.84,0.36-1.71,0.4-2.61
			c0.04-0.9,0.06-1.67,0.06-2.31c0-0.38-0.01-0.84-0.02-1.39s-0.05-1.1-0.13-1.67c-0.07-0.57-0.18-1.14-0.32-1.7
			c-0.14-0.56-0.35-1.07-0.62-1.51c-0.28-0.45-0.63-0.81-1.05-1.08c-0.43-0.28-0.95-0.41-1.56-0.41c-0.62,0-1.13,0.14-1.55,0.41
			c-0.41,0.28-0.75,0.64-1.02,1.08c-0.27,0.45-0.47,0.95-0.62,1.51c-0.15,0.56-0.26,1.13-0.32,1.7c-0.06,0.57-0.1,1.13-0.11,1.67
			c-0.01,0.54-0.02,1-0.02,1.39C38.1,498.96,38.12,499.74,38.16,500.64z"/>
	</g>
	<g>
		<path d="M90.27,552.37c0.43-1.48,1.02-2.66,1.77-3.55c0.74-0.89,1.61-1.53,2.6-1.91c0.99-0.38,2.03-0.57,3.14-0.57
			c1.13,0,2.18,0.19,3.17,0.57c0.99,0.38,1.86,1.02,2.61,1.91c0.75,0.89,1.35,2.08,1.78,3.55c0.44,1.48,0.65,3.3,0.65,5.47
			c0,2.23-0.22,4.1-0.65,5.59c-0.44,1.5-1.03,2.69-1.78,3.59c-0.75,0.89-1.63,1.53-2.61,1.91c-0.99,0.38-2.05,0.57-3.17,0.57
			c-1.11,0-2.15-0.19-3.14-0.57c-0.99-0.38-1.85-1.02-2.6-1.91c-0.74-0.89-1.33-2.09-1.77-3.59c-0.44-1.5-0.65-3.36-0.65-5.59
			C89.62,555.67,89.84,553.84,90.27,552.37z M94.21,560.14c0.04,0.9,0.18,1.77,0.4,2.61c0.22,0.84,0.58,1.56,1.07,2.15
			s1.19,0.89,2.1,0.89c0.93,0,1.65-0.3,2.15-0.89c0.5-0.6,0.86-1.31,1.08-2.15c0.22-0.84,0.36-1.71,0.4-2.61
			c0.04-0.9,0.06-1.67,0.06-2.31c0-0.38-0.01-0.84-0.02-1.39s-0.05-1.1-0.13-1.67c-0.07-0.57-0.18-1.14-0.32-1.7
			c-0.14-0.56-0.35-1.07-0.62-1.51c-0.28-0.45-0.63-0.81-1.05-1.08c-0.43-0.28-0.95-0.41-1.56-0.41c-0.62,0-1.13,0.14-1.55,0.41
			c-0.41,0.28-0.75,0.64-1.02,1.08c-0.27,0.45-0.47,0.95-0.62,1.51c-0.15,0.56-0.26,1.13-0.32,1.7c-0.06,0.57-0.1,1.13-0.11,1.67
			c-0.01,0.54-0.02,1-0.02,1.39C94.14,558.47,94.16,559.24,94.21,560.14z"/>
	</g>
	<g>
		<path d="M159.11,569.08v-14.47h-5.61v-3.41c0.79,0.02,1.55-0.04,2.28-0.17c0.73-0.14,1.39-0.38,1.98-0.73
			c0.58-0.35,1.08-0.81,1.48-1.39c0.4-0.57,0.67-1.29,0.8-2.14h3.6v22.31H159.11z"/>
	</g>
	<g>
		<path d="M214.96,551.79c0.34-1.09,0.85-2.05,1.53-2.87c0.68-0.82,1.53-1.46,2.57-1.91s2.21-0.69,3.55-0.69
			c1.02,0,1.99,0.16,2.92,0.48c0.92,0.32,1.74,0.78,2.44,1.37c0.7,0.6,1.26,1.33,1.67,2.2c0.41,0.87,0.62,1.85,0.62,2.93
			c0,1.13-0.18,2.09-0.54,2.9c-0.36,0.81-0.84,1.52-1.43,2.15c-0.6,0.63-1.27,1.2-2.02,1.71c-0.75,0.51-1.51,1.01-2.28,1.51
			c-0.77,0.5-1.51,1.04-2.23,1.61c-0.72,0.57-1.36,1.24-1.91,2.01h10.55v3.89H214c0-1.3,0.19-2.42,0.56-3.38
			c0.37-0.96,0.88-1.81,1.51-2.57c0.64-0.75,1.39-1.45,2.25-2.09c0.86-0.64,1.77-1.29,2.73-1.94c0.49-0.34,1.01-0.69,1.56-1.04
			c0.55-0.35,1.06-0.74,1.51-1.16c0.46-0.42,0.84-0.9,1.15-1.43c0.31-0.53,0.46-1.14,0.46-1.82c0-1.08-0.31-1.93-0.94-2.53
			c-0.63-0.6-1.43-0.91-2.41-0.91c-0.66,0-1.22,0.16-1.67,0.46c-0.46,0.31-0.82,0.71-1.1,1.21c-0.28,0.5-0.47,1.05-0.59,1.66
			c-0.12,0.61-0.18,1.21-0.18,1.8h-4.33C214.47,554.07,214.62,552.89,214.96,551.79z"/>
	</g>
	<g>
		<path d="M284.35,555.79c0.55-0.04,1.07-0.16,1.55-0.37c0.48-0.2,0.87-0.49,1.18-0.88s0.46-0.89,0.46-1.53
			c0-0.96-0.32-1.69-0.96-2.2c-0.64-0.51-1.37-0.77-2.2-0.77c-1.15,0-2.01,0.38-2.6,1.13c-0.58,0.75-0.87,1.7-0.84,2.85h-4.3
			c0.04-1.15,0.25-2.19,0.62-3.14c0.37-0.95,0.89-1.76,1.56-2.44c0.67-0.68,1.47-1.2,2.41-1.58c0.93-0.37,1.98-0.56,3.12-0.56
			c0.89,0,1.78,0.13,2.68,0.4c0.89,0.27,1.69,0.66,2.41,1.2c0.71,0.53,1.29,1.18,1.74,1.94c0.45,0.77,0.67,1.65,0.67,2.65
			c0,1.08-0.26,2.04-0.78,2.87c-0.52,0.83-1.3,1.39-2.34,1.69v0.06c1.23,0.28,2.2,0.87,2.9,1.78c0.7,0.91,1.05,2.01,1.05,3.28
			c0,1.17-0.23,2.21-0.69,3.12s-1.07,1.68-1.83,2.29c-0.76,0.62-1.65,1.08-2.64,1.4c-1,0.32-2.04,0.48-3.12,0.48
			c-1.25,0-2.4-0.18-3.43-0.54c-1.03-0.36-1.91-0.89-2.63-1.58c-0.72-0.69-1.28-1.53-1.67-2.53c-0.39-1-0.58-2.15-0.56-3.44h4.3
			c0.02,0.6,0.12,1.16,0.29,1.7c0.17,0.54,0.41,1.01,0.73,1.4c0.32,0.39,0.72,0.71,1.2,0.94c0.48,0.23,1.05,0.35,1.7,0.35
			c1.02,0,1.88-0.31,2.58-0.94c0.7-0.63,1.05-1.48,1.05-2.57c0-0.85-0.16-1.5-0.49-1.94c-0.33-0.45-0.75-0.77-1.26-0.97
			c-0.51-0.2-1.07-0.32-1.67-0.35c-0.61-0.03-1.18-0.05-1.74-0.05v-3.19C283.28,555.84,283.8,555.84,284.35,555.79z"/>
	</g>
	<g>
		<path d="M338.23,563.92v-4.14l9.69-13h4.05v13.42h2.96v3.73h-2.96v5.16h-4.3v-5.16H338.23z M347.57,552.45l-5.77,7.74h5.86v-7.74
			H347.57z"/>
	</g>
	<g>
		<path d="M406.63,550.5l-0.89,5.07l0.06,0.06c0.62-0.62,1.27-1.06,1.98-1.32c0.7-0.27,1.5-0.4,2.39-0.4c1.1,0,2.08,0.2,2.93,0.61
			c0.85,0.4,1.57,0.95,2.15,1.63c0.58,0.68,1.03,1.48,1.34,2.41c0.31,0.92,0.46,1.91,0.46,2.95c0,1.15-0.22,2.21-0.67,3.2
			c-0.45,0.99-1.05,1.84-1.8,2.57c-0.75,0.72-1.63,1.28-2.63,1.67c-1,0.39-2.06,0.58-3.19,0.56c-1.08,0-2.12-0.14-3.11-0.43
			c-0.99-0.29-1.86-0.73-2.63-1.32c-0.77-0.59-1.38-1.33-1.83-2.21c-0.46-0.88-0.7-1.91-0.72-3.08h4.53
			c0.11,1.02,0.49,1.83,1.15,2.44c0.66,0.6,1.5,0.91,2.52,0.91c0.59,0,1.13-0.12,1.61-0.37c0.48-0.24,0.88-0.56,1.21-0.96
			c0.33-0.39,0.58-0.85,0.76-1.37c0.18-0.52,0.27-1.06,0.27-1.61c0-0.57-0.09-1.12-0.26-1.63c-0.17-0.51-0.43-0.96-0.76-1.34
			c-0.34-0.38-0.74-0.68-1.21-0.89c-0.47-0.21-1.01-0.32-1.63-0.32c-0.81,0-1.47,0.14-1.98,0.43c-0.51,0.29-0.99,0.74-1.43,1.35
			h-4.08l2.2-12.33h12.46v3.73H406.63z"/>
	</g>
	<g>
		<path d="M473.45,550.57c-0.53-0.55-1.19-0.83-1.98-0.83c-0.81,0-1.48,0.24-2.02,0.72c-0.54,0.48-0.97,1.06-1.29,1.75
			c-0.32,0.69-0.55,1.43-0.7,2.22c-0.15,0.79-0.23,1.49-0.26,2.1l0.06,0.06c0.62-0.89,1.34-1.53,2.17-1.91
			c0.83-0.38,1.79-0.57,2.87-0.57c0.96,0,1.89,0.21,2.8,0.62c0.91,0.41,1.69,0.97,2.33,1.67c0.59,0.68,1.03,1.46,1.31,2.33
			c0.28,0.87,0.41,1.75,0.41,2.65c0,1.15-0.19,2.21-0.56,3.2c-0.37,0.99-0.9,1.85-1.59,2.58c-0.69,0.73-1.51,1.31-2.47,1.72
			c-0.96,0.42-2.02,0.62-3.19,0.62c-1.68,0-3.07-0.33-4.18-1c-1.1-0.67-1.99-1.55-2.64-2.63c-0.66-1.08-1.12-2.31-1.37-3.68
			c-0.26-1.37-0.38-2.77-0.38-4.19c0-1.38,0.16-2.76,0.48-4.14s0.83-2.63,1.53-3.74c0.7-1.12,1.6-2.02,2.71-2.73
			c1.1-0.7,2.45-1.05,4.05-1.05c0.96,0,1.85,0.14,2.68,0.41c0.83,0.28,1.56,0.67,2.2,1.2c0.64,0.52,1.16,1.16,1.56,1.93
			c0.4,0.77,0.67,1.65,0.8,2.65h-4.3C474.32,551.77,473.98,551.12,473.45,550.57z M469.64,557.85c-0.46,0.22-0.83,0.53-1.13,0.91
			s-0.52,0.82-0.67,1.32c-0.15,0.5-0.22,1.03-0.22,1.58c0,0.51,0.08,1.01,0.24,1.51c0.16,0.5,0.39,0.95,0.7,1.34
			c0.31,0.39,0.69,0.71,1.13,0.94c0.45,0.23,0.96,0.35,1.53,0.35c0.55,0,1.04-0.12,1.45-0.35c0.41-0.23,0.77-0.54,1.07-0.92
			c0.3-0.38,0.52-0.82,0.67-1.31c0.15-0.49,0.22-0.99,0.22-1.5c0-0.53-0.07-1.05-0.21-1.55c-0.14-0.5-0.35-0.95-0.62-1.34
			c-0.28-0.39-0.63-0.71-1.07-0.96c-0.44-0.24-0.94-0.37-1.51-0.37C470.62,557.52,470.1,557.63,469.64,557.85z"/>
	</g>
	<g>
		<path d="M537.66,554.42c-0.9,1.49-1.66,3.07-2.26,4.75c-0.61,1.68-1.07,3.38-1.4,5.1c-0.33,1.72-0.51,3.33-0.53,4.81h-4.84
			c0.26-3.34,1.04-6.54,2.34-9.63c1.31-3.08,3.02-5.91,5.15-8.48h-10.58v-4.21h15.23v3.89C539.6,551.68,538.57,552.94,537.66,554.42
			z"/>
	</g>
	<g>
		<path d="M40.87,447.39v-14.47h-5.61v-3.41c0.79,0.02,1.55-0.04,2.28-0.17c0.73-0.14,1.39-0.38,1.98-0.73
			c0.58-0.35,1.08-0.81,1.48-1.39c0.4-0.57,0.67-1.29,0.8-2.14h3.6v22.31H40.87z"/>
	</g>
	<g>
		<path d="M34.53,367.9c0.34-1.09,0.85-2.05,1.53-2.87c0.68-0.82,1.53-1.46,2.57-1.91c1.03-0.46,2.21-0.69,3.55-0.69
			c1.02,0,1.99,0.16,2.92,0.48c0.92,0.32,1.74,0.78,2.44,1.37c0.7,0.6,1.26,1.33,1.67,2.2c0.41,0.87,0.62,1.85,0.62,2.93
			c0,1.13-0.18,2.09-0.54,2.9c-0.36,0.81-0.84,1.52-1.43,2.15c-0.6,0.63-1.27,1.2-2.02,1.71c-0.75,0.51-1.51,1.01-2.28,1.51
			c-0.77,0.5-1.51,1.04-2.23,1.61s-1.36,1.24-1.91,2.01h10.55v3.89H33.57c0-1.3,0.19-2.42,0.56-3.38c0.37-0.96,0.88-1.81,1.51-2.57
			c0.64-0.75,1.39-1.45,2.25-2.09c0.86-0.64,1.77-1.29,2.73-1.94c0.49-0.34,1.01-0.69,1.56-1.04c0.55-0.35,1.06-0.74,1.51-1.16
			c0.46-0.42,0.84-0.9,1.15-1.43c0.31-0.53,0.46-1.14,0.46-1.82c0-1.08-0.31-1.93-0.94-2.53c-0.63-0.6-1.43-0.91-2.41-0.91
			c-0.66,0-1.22,0.16-1.67,0.46c-0.46,0.31-0.82,0.71-1.1,1.21c-0.28,0.5-0.47,1.05-0.59,1.66c-0.12,0.61-0.18,1.21-0.18,1.8h-4.33
			C34.04,370.18,34.19,369,34.53,367.9z"/>
	</g>
	<g>
		<path d="M41.73,309.71c0.55-0.04,1.07-0.16,1.55-0.37c0.48-0.2,0.87-0.49,1.18-0.88c0.31-0.38,0.46-0.89,0.46-1.53
			c0-0.96-0.32-1.69-0.96-2.2c-0.64-0.51-1.37-0.77-2.2-0.77c-1.15,0-2.01,0.38-2.6,1.13c-0.58,0.75-0.87,1.7-0.84,2.85h-4.3
			c0.04-1.15,0.25-2.19,0.62-3.14c0.37-0.95,0.89-1.76,1.56-2.44c0.67-0.68,1.47-1.2,2.41-1.58c0.93-0.37,1.98-0.56,3.12-0.56
			c0.89,0,1.78,0.13,2.68,0.4c0.89,0.27,1.69,0.66,2.41,1.2c0.71,0.53,1.29,1.18,1.74,1.94c0.45,0.77,0.67,1.65,0.67,2.65
			c0,1.08-0.26,2.04-0.78,2.87c-0.52,0.83-1.3,1.39-2.34,1.69v0.06c1.23,0.28,2.2,0.87,2.9,1.78c0.7,0.91,1.05,2.01,1.05,3.28
			c0,1.17-0.23,2.21-0.69,3.12c-0.46,0.91-1.07,1.68-1.83,2.29c-0.76,0.62-1.65,1.08-2.64,1.4c-1,0.32-2.04,0.48-3.12,0.48
			c-1.25,0-2.4-0.18-3.43-0.54c-1.03-0.36-1.91-0.89-2.63-1.58c-0.72-0.69-1.28-1.53-1.67-2.53c-0.39-1-0.58-2.15-0.56-3.44h4.3
			c0.02,0.6,0.12,1.16,0.29,1.7c0.17,0.54,0.41,1.01,0.73,1.4s0.72,0.71,1.2,0.94c0.48,0.23,1.05,0.35,1.7,0.35
			c1.02,0,1.88-0.31,2.58-0.94c0.7-0.63,1.05-1.48,1.05-2.57c0-0.85-0.16-1.5-0.49-1.94c-0.33-0.45-0.75-0.77-1.26-0.97
			s-1.07-0.32-1.67-0.35c-0.61-0.03-1.18-0.05-1.74-0.05v-3.19C40.66,309.75,41.18,309.75,41.73,309.71z"/>
	</g>
	<g>
		<path d="M33.42,255.65v-4.14l9.69-13h4.05v13.42h2.96v3.73h-2.96v5.16h-4.3v-5.16H33.42z M42.75,244.17l-5.77,7.74h5.86v-7.74
			H42.75z"/>
	</g>
	<g>
		<path d="M39.63,180.04l-0.89,5.07l0.06,0.06c0.62-0.62,1.27-1.06,1.98-1.32c0.7-0.27,1.5-0.4,2.39-0.4c1.1,0,2.08,0.2,2.93,0.61
			c0.85,0.4,1.57,0.95,2.15,1.63c0.58,0.68,1.03,1.48,1.34,2.41c0.31,0.92,0.46,1.91,0.46,2.95c0,1.15-0.22,2.21-0.67,3.2
			c-0.45,0.99-1.05,1.84-1.8,2.57c-0.75,0.72-1.63,1.28-2.63,1.67c-1,0.39-2.06,0.58-3.19,0.56c-1.08,0-2.12-0.14-3.11-0.43
			c-0.99-0.29-1.86-0.73-2.63-1.32c-0.77-0.59-1.38-1.33-1.83-2.21c-0.46-0.88-0.7-1.91-0.72-3.08H38c0.11,1.02,0.49,1.83,1.15,2.44
			c0.66,0.6,1.5,0.91,2.52,0.91c0.59,0,1.13-0.12,1.61-0.37c0.48-0.24,0.88-0.56,1.21-0.96c0.33-0.39,0.58-0.85,0.76-1.37
			c0.18-0.52,0.27-1.06,0.27-1.61c0-0.57-0.09-1.12-0.26-1.63c-0.17-0.51-0.43-0.96-0.76-1.34c-0.34-0.38-0.74-0.68-1.21-0.89
			c-0.47-0.21-1.01-0.32-1.63-0.32c-0.81,0-1.47,0.14-1.98,0.43c-0.51,0.29-0.99,0.74-1.43,1.35h-4.08l2.2-12.33h12.46v3.73H39.63z"
			/>
	</g>
	<g>
		<path d="M44.25,117.91c-0.53-0.55-1.19-0.83-1.98-0.83c-0.81,0-1.48,0.24-2.02,0.72c-0.54,0.48-0.97,1.06-1.29,1.75
			c-0.32,0.69-0.55,1.43-0.7,2.22c-0.15,0.79-0.23,1.49-0.26,2.1l0.06,0.06c0.62-0.89,1.34-1.53,2.17-1.91
			c0.83-0.38,1.78-0.57,2.87-0.57c0.96,0,1.89,0.21,2.8,0.62c0.91,0.41,1.69,0.97,2.33,1.67c0.59,0.68,1.03,1.46,1.31,2.33
			c0.28,0.87,0.41,1.75,0.41,2.65c0,1.15-0.19,2.21-0.56,3.2c-0.37,0.99-0.9,1.85-1.59,2.58c-0.69,0.73-1.51,1.31-2.47,1.72
			c-0.96,0.42-2.02,0.62-3.19,0.62c-1.68,0-3.07-0.33-4.18-1c-1.1-0.67-1.99-1.55-2.64-2.63c-0.66-1.08-1.12-2.31-1.37-3.68
			c-0.26-1.37-0.38-2.77-0.38-4.19c0-1.38,0.16-2.76,0.48-4.14c0.32-1.38,0.83-2.63,1.53-3.74c0.7-1.12,1.6-2.02,2.71-2.73
			c1.1-0.7,2.45-1.05,4.05-1.05c0.96,0,1.85,0.14,2.68,0.41c0.83,0.28,1.56,0.67,2.2,1.2c0.64,0.52,1.16,1.16,1.56,1.93
			c0.4,0.77,0.67,1.65,0.8,2.65h-4.3C45.12,119.11,44.78,118.46,44.25,117.91z M40.44,125.19c-0.46,0.22-0.83,0.53-1.13,0.91
			c-0.3,0.38-0.52,0.82-0.67,1.32s-0.22,1.03-0.22,1.58c0,0.51,0.08,1.01,0.24,1.51c0.16,0.5,0.39,0.95,0.7,1.34
			c0.31,0.39,0.69,0.71,1.13,0.94c0.45,0.23,0.96,0.35,1.53,0.35c0.55,0,1.04-0.12,1.45-0.35c0.41-0.23,0.77-0.54,1.07-0.92
			s0.52-0.82,0.67-1.31c0.15-0.49,0.22-0.99,0.22-1.5c0-0.53-0.07-1.05-0.21-1.55c-0.14-0.5-0.35-0.95-0.62-1.34
			c-0.28-0.39-0.63-0.71-1.07-0.96c-0.44-0.24-0.94-0.37-1.51-0.37C41.43,124.86,40.9,124.97,40.44,125.19z"/>
	</g>
	<g>
		<path d="M46.27,59.57c-0.9,1.49-1.66,3.07-2.26,4.75c-0.61,1.68-1.07,3.38-1.4,5.1c-0.33,1.72-0.51,3.33-0.53,4.81h-4.84
			c0.25-3.34,1.04-6.54,2.34-9.63c1.31-3.08,3.02-5.91,5.15-8.48H34.15v-4.21h15.23v3.89C48.21,56.83,47.18,58.09,46.27,59.57z"/>
	</g>
</g>
</svg>
